<svg viewBox="0 0 512 512" xmlns="http://www.w3.org/2000/svg" width="512" height="512">
  <rect width="512" height="512" fill="#0a0f1e" rx="112"/>
  <rect x="80" y="100" width="18" height="295" rx="4" fill="#2a4a8a"/>
  <rect x="98" y="108" width="14" height="280" rx="3" fill="#1e3a6e"/>
  <polygon points="112,108 416,82 416,390 112,390" fill="#1e3566"/>
  <polygon points="112,108 416,82 416,390 112,390" fill="none" stroke="#3a5fa0" stroke-width="2"/>
  <path d="M256 248 L112 265 L112 390 L416 390 L416 265 Z" fill="#152848"/>
  <line x1="148" y1="155" x2="385" y2="138" stroke="#4a7acc" stroke-width="5" stroke-linecap="round" stroke-opacity="0.6"/>
  <line x1="148" y1="180" x2="385" y2="163" stroke="#4a7acc" stroke-width="4" stroke-linecap="round" stroke-opacity="0.4"/>
  <line x1="148" y1="204" x2="385" y2="187" stroke="#4a7acc" stroke-width="4" stroke-linecap="round" stroke-opacity="0.35"/>
  <line x1="148" y1="228" x2="310" y2="213" stroke="#4a7acc" stroke-width="4" stroke-linecap="round" stroke-opacity="0.3"/>
  <line x1="148" y1="295" x2="385" y2="295" stroke="#4a7acc" stroke-width="3.5" stroke-linecap="round" stroke-opacity="0.25"/>
  <line x1="148" y1="318" x2="385" y2="318" stroke="#4a7acc" stroke-width="3.5" stroke-linecap="round" stroke-opacity="0.22"/>
  <line x1="148" y1="341" x2="385" y2="341" stroke="#4a7acc" stroke-width="3.5" stroke-linecap="round" stroke-opacity="0.18"/>
  <line x1="148" y1="364" x2="280" y2="364" stroke="#4a7acc" stroke-width="3.5" stroke-linecap="round" stroke-opacity="0.15"/>
  <rect x="210" y="308" width="92" height="72" rx="10" fill="#1e3566" stroke="#c9a84c" stroke-width="3"/>
  <text x="256" y="357" text-anchor="middle" font-family="'DM Sans',system-ui,sans-serif" font-size="30" font-weight="800" fill="#c9a84c">AI</text>
  <line x1="256" y1="308" x2="256" y2="284" stroke="#c9a84c" stroke-width="2.5" stroke-linecap="round"/>
  <circle cx="256" cy="277" r="6" fill="none" stroke="#c9a84c" stroke-width="2.5"/>
  <line x1="210" y1="344" x2="184" y2="344" stroke="#c9a84c" stroke-width="2.5" stroke-linecap="round"/>
  <circle cx="177" cy="344" r="6" fill="none" stroke="#c9a84c" stroke-width="2.5"/>
  <line x1="302" y1="344" x2="328" y2="344" stroke="#c9a84c" stroke-width="2.5" stroke-linecap="round"/>
  <circle cx="335" cy="344" r="6" fill="none" stroke="#c9a84c" stroke-width="2.5"/>
  <line x1="222" y1="380" x2="208" y2="406" stroke="#c9a84c" stroke-width="2.5" stroke-linecap="round"/>
  <circle cx="203" cy="413" r="6" fill="none" stroke="#c9a84c" stroke-width="2.5"/>
  <line x1="290" y1="380" x2="304" y2="406" stroke="#c9a84c" stroke-width="2.5" stroke-linecap="round"/>
  <circle cx="309" cy="413" r="6" fill="none" stroke="#c9a84c" stroke-width="2.5"/>
  <line x1="212" y1="320" x2="188" y2="302" stroke="#c9a84c" stroke-width="2" stroke-linecap="round"/>
  <circle cx="183" cy="298" r="5" fill="none" stroke="#c9a84c" stroke-width="2"/>
  <line x1="300" y1="320" x2="324" y2="302" stroke="#c9a84c" stroke-width="2" stroke-linecap="round"/>
  <circle cx="329" cy="298" r="5" fill="none" stroke="#c9a84c" stroke-width="2"/>
</svg>
